# xmcd CD Database Entry
#
# Track frame offsets:
# 150
# 21976
# 38850
# 61424
# 84975
# 105367
# 123439
# 144432
# 161607
# 179756
# 204786
# 228015
# 241886
# 260187
# 278186
# 300381
# 320638
# 342149
#
# Disc length: 4788 seconds
#
# Revision: 2
# Processed by: cddbd v1.5.2PL0 Copyright (c) Steve Scherf et al.
# Submitted via: tcd 2.0b
#
DISCID=f412b212
DTITLE=Atif Aslam - Doorie 
DYEAR=1900
DGENRE=
TTITLE0=Doorie
TTITLE1=Ehsaas
TTITLE2=Hum Kis Galli Ja Rahe Hai
TTITLE3=Kuch Is Tarah
TTITLE4=O Re Piya
TTITLE5=Mahi Ve
TTITLE6=Mahiya Ve Soniya
TTITLE7=Maula
TTITLE8=Yakeen
TTITLE9=Dooire (House Mix)
TTITLE10=Kuch Is Tarah (Euro Mix)
TTITLE11=Mahiya Ve Soniya (Soul Mix)
TTITLE12=O Re Piya (Trance Mix)
TTITLE13=Yakeen (Club Mix)
TTITLE14=Doorie ( Energy Mix)
TTITLE15=Mahi Ve (Eternal Mix)
TTITLE16=Hum Kis Galli (Dance Mix)
TTITLE17=Ehsaas (Freaky Mix) AT
EXTD=
EXTT0=
EXTT1=
EXTT2=
EXTT3=
EXTT4=
EXTT5=
EXTT6=
EXTT7=
EXTT8=
EXTT9=
EXTT10=
EXTT11=
EXTT12=
EXTT13=
EXTT14=
EXTT15=
EXTT16=
EXTT17=
PLAYORDER=
